<svg width="40" height="41" viewBox="0 0 40 41" fill="none" xmlns="http://www.w3.org/2000/svg">
<path d="M20 40.1147C23.75 40.0627 27.1094 39.1512 30.0781 37.3804C33.099 35.6095 35.4948 33.2137 37.2656 30.1929C39.0365 27.2241 39.9479 23.8647 40 20.1147C39.9479 16.3647 39.0365 13.0054 37.2656 10.0366C35.4948 7.01579 33.099 4.61995 30.0781 2.84912C27.1094 1.07829 23.75 0.166829 20 0.114746C16.25 0.166829 12.8906 1.07829 9.92188 2.84912C6.90104 4.61995 4.50521 7.01579 2.73438 10.0366C0.963542 13.0054 0.0520833 16.3647 0 20.1147C0.0520833 23.8647 0.963542 27.2241 2.73438 30.1929C4.50521 33.2137 6.90104 35.6095 9.92188 37.3804C12.8906 39.1512 16.25 40.0627 20 40.1147ZM11.9531 18.3179L20.7031 9.56787C21.224 9.09912 21.8229 8.86475 22.5 8.86475C23.1771 8.86475 23.776 9.09912 24.2969 9.56787C24.7656 10.0887 25 10.6877 25 11.3647C25 12.0418 24.7656 12.6408 24.2969 13.1616L17.2656 20.1147L24.2969 27.0679C24.7656 27.5887 25 28.1877 25 28.8647C25 29.5418 24.7656 30.1408 24.2969 30.6616C23.776 31.1304 23.1771 31.3647 22.5 31.3647C21.8229 31.3647 21.224 31.1304 20.7031 30.6616L11.9531 21.9116C11.4844 21.3908 11.25 20.7918 11.25 20.1147C11.25 19.4377 11.4844 18.8387 11.9531 18.3179Z" fill="url(#paint0_linear_1264_6570)"/>
<defs>
<linearGradient id="paint0_linear_1264_6570" x1="40" y1="36.6454" x2="-1.04308e-06" y2="0.114745" gradientUnits="userSpaceOnUse">
<stop stop-color="#7B999C"/>
<stop offset="1" stop-color="#315C70"/>
</linearGradient>
</defs>
</svg>
