<svg width="40" height="41" viewBox="0 0 40 41" fill="none" xmlns="http://www.w3.org/2000/svg">
<path d="M20 0.114746C16.25 0.166829 12.8906 1.07829 9.92188 2.84912C6.90104 4.61995 4.50521 7.01579 2.73438 10.0366C0.963542 13.0054 0.0520833 16.3647 0 20.1147C0.0520833 23.8647 0.963542 27.2241 2.73438 30.1929C4.50521 33.2137 6.90104 35.6095 9.92188 37.3804C12.8906 39.1512 16.25 40.0627 20 40.1147C23.75 40.0627 27.1094 39.1512 30.0781 37.3804C33.099 35.6095 35.4948 33.2137 37.2656 30.1929C39.0365 27.2241 39.9479 23.8647 40 20.1147C39.9479 16.3647 39.0365 13.0054 37.2656 10.0366C35.4948 7.01579 33.099 4.61995 30.0781 2.84912C27.1094 1.07829 23.75 0.166829 20 0.114746ZM28.0469 21.9116L19.2969 30.6616C18.776 31.1304 18.1771 31.3647 17.5 31.3647C16.8229 31.3647 16.224 31.1304 15.7031 30.6616C15.2344 30.1408 15 29.5418 15 28.8647C15 28.1877 15.2344 27.5887 15.7031 27.0679L22.7344 20.1147L15.7031 13.1616C15.2344 12.6408 15 12.0418 15 11.3647C15 10.6877 15.2344 10.0887 15.7031 9.56787C16.224 9.09912 16.8229 8.86475 17.5 8.86475C18.1771 8.86475 18.776 9.09912 19.2969 9.56787L28.0469 18.3179C28.5156 18.8387 28.75 19.4377 28.75 20.1147C28.75 20.7918 28.5156 21.3908 28.0469 21.9116Z" fill="url(#paint0_linear_1264_6569)"/>
<defs>
<linearGradient id="paint0_linear_1264_6569" x1="1.91897e-07" y1="3.58413" x2="40" y2="40.1147" gradientUnits="userSpaceOnUse">
<stop stop-color="#7B999C"/>
<stop offset="1" stop-color="#315C70"/>
</linearGradient>
</defs>
</svg>
