<svg width="19" height="16" viewBox="0 0 19 16" fill="none" xmlns="http://www.w3.org/2000/svg">
<path d="M14.4688 13C14.0521 13.0208 13.7083 13.1667 13.4375 13.4375C13.1458 13.7292 13 14.0833 13 14.5C13.0208 14.9167 13.1667 15.2708 13.4375 15.5625C13.7083 15.8333 14.0521 15.9792 14.4688 16C14.8854 15.9792 15.2292 15.8333 15.5 15.5625C15.7917 15.2708 15.9375 14.9167 15.9375 14.5C15.9375 14.0833 15.8021 13.7292 15.5312 13.4375C15.2604 13.1667 14.9062 13.0208 14.4688 13ZM5.46875 13C5.05208 13.0208 4.70833 13.1667 4.4375 13.4375C4.14583 13.7292 4 14.0833 4 14.5C4.02083 14.9167 4.16667 15.2708 4.4375 15.5625C4.70833 15.8333 5.05208 15.9792 5.46875 16C5.88542 15.9792 6.22917 15.8333 6.5 15.5625C6.79167 15.2708 6.9375 14.9167 6.9375 14.5C6.9375 14.0833 6.80208 13.7292 6.53125 13.4375C6.26042 13.1667 5.90625 13.0208 5.46875 13ZM17.8125 1.40625C17.6042 1.13542 17.3333 1 17 1H3.78125L3.75 0.625C3.64583 0.229167 3.39583 0.0208333 3 0H0.71875C0.28125 0.0416667 0.0416667 0.28125 0 0.71875C0 0.927083 0.0729167 1.10417 0.21875 1.25C0.364583 1.41667 0.53125 1.5 0.71875 1.5H2.34375L4.25 11.4062C4.35417 11.7812 4.60417 11.9792 5 12H15.25C15.7083 11.9583 15.9583 11.7188 16 11.2812C15.9583 10.8021 15.7083 10.5417 15.25 10.5H5.625L5.34375 9H15.2812C15.7604 8.97917 16.0833 8.73958 16.25 8.28125L17.9688 2.3125C18.0521 1.95833 18 1.65625 17.8125 1.40625Z" fill="#F1F1F1"/>
</svg>
