<svg width="14" height="12" viewBox="0 0 14 12" fill="none" xmlns="http://www.w3.org/2000/svg">
<path d="M11.6666 0.666504H2.33331C1.80288 0.666504 1.29417 0.877218 0.9191 1.25229C0.544027 1.62736 0.333313 2.13607 0.333313 2.6665V9.33317C0.333313 9.8636 0.544027 10.3723 0.9191 10.7474C1.29417 11.1225 1.80288 11.3332 2.33331 11.3332H11.6666C12.1971 11.3332 12.7058 11.1225 13.0809 10.7474C13.4559 10.3723 13.6666 9.8636 13.6666 9.33317V2.6665C13.6666 2.13607 13.4559 1.62736 13.0809 1.25229C12.7058 0.877218 12.1971 0.666504 11.6666 0.666504ZM2.33331 1.99984H11.6666C11.8435 1.99984 12.013 2.07008 12.1381 2.1951C12.2631 2.32012 12.3333 2.48969 12.3333 2.6665L6.99998 5.91984L1.66665 2.6665C1.66665 2.48969 1.73688 2.32012 1.86191 2.1951C1.98693 2.07008 2.1565 1.99984 2.33331 1.99984ZM12.3333 9.33317C12.3333 9.50998 12.2631 9.67955 12.1381 9.80457C12.013 9.9296 11.8435 9.99984 11.6666 9.99984H2.33331C2.1565 9.99984 1.98693 9.9296 1.86191 9.80457C1.73688 9.67955 1.66665 9.50998 1.66665 9.33317V4.1865L6.65331 7.23317C6.75466 7.29168 6.86962 7.32249 6.98665 7.32249C7.10367 7.32249 7.21863 7.29168 7.31998 7.23317L12.3333 4.1865V9.33317Z" fill="white"/>
</svg>
