<svg width="14" height="14" viewBox="0 0 14 14" fill="none" xmlns="http://www.w3.org/2000/svg">
<path d="M10.044 13.6662H10.0627C10.4147 13.6662 10.7473 13.5275 10.9993 13.2755L12.8073 11.4675C12.8693 11.4056 12.9185 11.3322 12.952 11.2513C12.9855 11.1704 13.0028 11.0837 13.0028 10.9962C13.0028 10.9086 12.9855 10.8219 12.952 10.741C12.9185 10.6602 12.8693 10.5867 12.8073 10.5248L10.1407 7.85816C10.0788 7.7962 10.0053 7.74704 9.92447 7.7135C9.84359 7.67996 9.75689 7.6627 9.66934 7.6627C9.58178 7.6627 9.49508 7.67996 9.41421 7.7135C9.33333 7.74704 9.25986 7.7962 9.198 7.85816L8.13534 8.92083C7.64267 8.77416 6.72334 8.44083 6.14067 7.85816C5.558 7.2755 5.22467 6.35616 5.078 5.8635L6.14067 4.80083C6.20263 4.73897 6.25179 4.6655 6.28533 4.58462C6.31887 4.50375 6.33614 4.41705 6.33614 4.3295C6.33614 4.24194 6.31887 4.15524 6.28533 4.07437C6.25179 3.99349 6.20263 3.92002 6.14067 3.85816L3.474 1.1915C3.34655 1.0712 3.17793 1.00419 3.00267 1.00419C2.82741 1.00419 2.65879 1.0712 2.53134 1.1915L0.724002 2.9995C0.470669 3.25283 0.328002 3.60083 0.333335 3.95616C0.348669 4.9055 0.600002 8.20283 3.19867 10.8015C5.79734 13.4002 9.09467 13.6508 10.044 13.6662ZM3.00334 2.6055L4.72733 4.3295L3.86534 5.1915C3.78689 5.26972 3.72927 5.36633 3.69771 5.47253C3.66616 5.57872 3.66167 5.69113 3.68467 5.7995C3.70067 5.87616 4.092 7.69416 5.19867 8.80083C6.30534 9.9075 8.12334 10.2988 8.2 10.3148C8.30837 10.3379 8.4208 10.3335 8.52702 10.302C8.63324 10.2704 8.72984 10.2127 8.808 10.1342L9.67 9.27216L11.394 10.9962L10.0567 12.3328C9.22467 12.3188 6.378 12.0955 4.14134 9.85816C1.89734 7.61416 1.68 4.7575 1.66667 3.94216L3.00334 2.6055ZM12.3327 6.33283H13.666C13.666 2.91283 11.084 0.333496 7.65934 0.333496V1.66683C10.3673 1.66683 12.3327 3.62883 12.3327 6.33283Z" fill="white"/>
</svg>
